<?xml version="1.0" encoding="utf-8"?>
<!-- Generator: Adobe Illustrator 25.0.0, SVG Export Plug-In . SVG Version: 6.00 Build 0)  -->
<svg version="1.1" xmlns="http://www.w3.org/2000/svg" xmlns:xlink="http://www.w3.org/1999/xlink" x="0px" y="0px"
	 viewBox="0 0 500 500" style="enable-background:new 0 0 500 500;" xml:space="preserve">
<style type="text/css">
	.st0{fill:#FFFFFF;}
	.st1{display:none;}
	.st2{display:inline;}
</style>
<g id="Layer_1">
</g>
<g id="Layer_2">
	<path class="st0" d="M447.82,499.5H52.18c-28.54,0-51.68-23.14-51.68-51.68V52.18C0.5,23.64,23.64,0.5,52.18,0.5h395.64
		c28.54,0,51.68,23.14,51.68,51.68v395.64C499.5,476.36,476.36,499.5,447.82,499.5z"/>
	<g>
		<g>
			<path d="M167.43,426.78c-4.9,0-9.99-1.03-15.27-3.09c-5.29-2.07-10.05-5.16-14.3-9.28c-4.25-4.13-7.73-9.28-10.44-15.46
				c-2.71-6.19-4.06-13.28-4.06-21.26v-70.36c0-6.44-1.03-12.18-3.09-17.2c-2.07-5.03-4.64-9.21-7.73-12.56
				c-3.09-3.35-6.64-5.93-10.63-7.73c-4-1.8-7.93-2.71-11.79-2.71v-27.06c3.87,0,7.79-0.83,11.79-2.51
				c3.99-1.67,7.54-4.19,10.63-7.54c3.09-3.35,5.67-7.47,7.73-12.37c2.06-4.89,3.09-10.44,3.09-16.62v-72.29
				c0-7.99,1.41-15.01,4.25-21.07c2.83-6.05,6.44-11.08,10.82-15.08c4.38-3.99,9.08-7.02,14.11-9.08c5.03-2.06,9.86-3.09,14.5-3.09
				h30.15v27.06h-20.1c-6.71,0-11.66,2.39-14.88,7.15c-3.23,4.77-4.83,11.66-4.83,20.68v72.68c0,6.96-1.16,13.14-3.48,18.56
				c-2.32,5.41-5.22,9.92-8.7,13.53c-3.48,3.61-7.29,6.51-11.4,8.7c-4.13,2.19-8.12,3.67-11.98,4.45v0.77
				c4.38,0.52,8.7,1.87,12.95,4.06c4.25,2.19,8.05,5.22,11.4,9.08c3.35,3.87,6.05,8.64,8.12,14.3c2.06,5.67,3.09,12.37,3.09,20.1
				v69.59c0,19.07,6.7,28.61,20.1,28.61h19.72v27.06H167.43z"/>
		</g>
		<g>
			<path d="M397.48,269.63c-4,1.68-7.54,4.19-10.63,7.54c-3.09,3.35-5.67,7.54-7.73,12.56c-2.07,5.03-3.09,10.76-3.09,17.2v70.75
				c0,7.99-1.35,15.08-4.06,21.26s-6.19,11.34-10.44,15.46c-4.25,4.12-9.02,7.21-14.3,9.28c-5.29,2.06-10.38,3.09-15.27,3.09h-29.77
				v-27.06h19.72c13.4,0,20.1-9.54,20.1-28.61v-69.59c0-7.73,1.03-14.3,3.09-19.72c2.06-5.41,4.83-10.05,8.31-13.92
				c3.48-3.87,7.28-6.89,11.41-9.08c4.12-2.19,8.37-3.8,12.76-4.83v-0.77c-4.64-0.51-9.08-1.87-13.34-4.06
				c-4.25-2.19-7.99-5.28-11.21-9.28c-3.23-3.99-5.87-8.76-7.93-14.3c-2.07-5.54-3.09-11.79-3.09-18.75v-71.52
				c0-9.02-1.61-15.91-4.83-20.68c-3.23-4.77-8.18-7.15-14.88-7.15h-20.1V80.39h30.15c4.64,0,9.47,1.03,14.5,3.09
				c5.03,2.07,9.72,5.09,14.11,9.08c4.38,4,7.99,9.02,10.82,15.08c2.83,6.06,4.25,13.08,4.25,21.07v71.52
				c0,6.19,1.03,11.79,3.09,16.82c2.06,5.03,4.64,9.22,7.73,12.56c3.09,3.35,6.63,5.93,10.63,7.73c3.99,1.81,7.92,2.71,11.79,2.71
				v27.06C405.41,267.12,401.48,267.96,397.48,269.63z"/>
		</g>
	</g>
</g>
<g id="Layer_3" class="st1">
	<g class="st2">
		<g>
			<path class="st0" d="M277.71,367.38l-26.92-26.92l-120.4-120.4c-22.06-22.06-22.06-57.84,0-79.9l0,0
				c22.06-22.07,57.84-22.07,79.9,0l142.03,142.03c22.06,22.06,22.06,57.84,0,79.9l-39.95,39.95l-22.46,22.46
				C295.56,418.86,301.13,390.8,277.71,367.38z"/>
			<path class="st0" d="M383.99,261.1l-26.92-26.92l-120.4-120.4c-22.06-22.06-22.06-57.84,0-79.9l0,0
				c22.06-22.07,57.84-22.07,79.9,0l142.03,142.03c22.06,22.06,22.06,57.84,0,79.9l-39.95,39.95l-22.46,22.46
				C401.85,312.58,407.41,284.52,383.99,261.1z"/>
			<path class="st0" d="M130.39,140.16L130.39,140.16c22.06-22.07,57.84-22.07,79.9,0l142.03,142.03
				c-78.81-78.81-183.91-24.1-221.93-62.13C108.33,198,108.33,162.23,130.39,140.16z"/>
		</g>
		<g>
			<path class="st0" d="M100.11,239.78l26.92,26.92l120.4,120.4c22.06,22.06,22.06,57.84,0,79.9l0,0
				c-22.07,22.06-57.84,22.06-79.9,0L25.49,324.97c-22.06-22.06-22.06-57.84,0-79.9l39.95-39.95l22.46-22.46
				C82.25,188.3,76.69,216.36,100.11,239.78z"/>
			<path class="st0" d="M247.42,467L247.42,467c-22.07,22.06-57.84,22.06-79.9,0L25.49,324.97c78.81,78.81,183.91,24.1,221.93,62.13
				C269.49,409.16,269.49,444.93,247.42,467z"/>
		</g>
	</g>
</g>
</svg>
