<?xml version="1.0" encoding="utf-8"?>
<!-- Generator: Adobe Illustrator 25.0.0, SVG Export Plug-In . SVG Version: 6.00 Build 0)  -->
<svg version="1.1" id="Layer_1" xmlns="http://www.w3.org/2000/svg" xmlns:xlink="http://www.w3.org/1999/xlink" x="0px" y="0px"
	 viewBox="0 0 500 500" style="enable-background:new 0 0 500 500;" xml:space="preserve">
<style type="text/css">
	.st0{fill:#226B97;}
	.st1{fill:#FFFFFF;}
</style>
<g>
	<rect x="0" class="st0" width="500" height="500"/>
	<g>
		<path class="st1" d="M156.89,233.32c-14.18,10.41-34.64,15.61-61.38,15.61c-9.51,0-19.29-0.72-29.34-2.15
			c-10.05-1.44-18.94-3.41-26.65-5.92l4.31-41.46c8.25,4.13,16.51,7.23,24.77,9.29c8.25,2.07,17.4,3.09,27.46,3.09
			c10.95,0,18.75-1.61,23.42-4.84c4.66-3.23,7-7.71,7-13.46c0-5.92-2.2-10.41-6.6-13.46c-4.4-3.05-9.87-5.69-16.42-7.94
			c-6.55-2.24-13.69-4.48-21.4-6.73c-7.72-2.24-14.85-5.38-21.4-9.42c-6.55-4.04-12.03-9.46-16.42-16.29
			c-4.4-6.82-6.6-15.97-6.6-27.46c0-11.31,2.46-20.64,7.4-28c4.93-7.36,11.31-13.23,19.11-17.63c7.81-4.39,16.6-7.49,26.38-9.29
			c9.78-1.79,19.42-2.69,28.94-2.69c7.89,0,16.19,0.54,24.9,1.61c8.7,1.08,16.56,2.87,23.55,5.38l-3.23,38.76
			c-6.82-3.05-13.46-5.25-19.92-6.6c-6.46-1.35-13.91-2.02-22.34-2.02c-3.06,0-6.51,0.14-10.36,0.4c-3.86,0.27-7.5,0.99-10.9,2.15
			c-3.41,1.17-6.24,2.92-8.48,5.25c-2.25,2.33-3.37,5.56-3.37,9.69c0,5.03,2.2,8.88,6.6,11.58c4.39,2.69,9.87,5.03,16.42,7
			c6.55,1.98,13.68,4.04,21.4,6.19c7.71,2.15,14.85,5.3,21.4,9.42c6.55,4.13,12.02,9.65,16.42,16.56c4.39,6.91,6.6,16.02,6.6,27.32
			C178.15,207.57,171.06,222.92,156.89,233.32z"/>
		<path class="st1" d="M394.31,245.71l0.8-144.29h-0.53l-47.92,144.29h-46.03l-45.76-144.29h-0.54l1.08,144.29h-48.99V57.81h78.88
			l39.84,124.91h0.54l41.72-124.91h75.91v187.9H394.31z"/>
	</g>
	<g>
		<path class="st1" d="M170.96,398.78c-3.92,9.15-9.53,16.68-16.82,22.6c-7.29,5.92-16.23,10.29-26.83,13.1
			c-10.6,2.82-22.49,4.23-35.7,4.23H39.2V294.67h52.83c12.93,0,24.62,1.17,35.08,3.51c10.45,2.34,19.36,6.29,26.72,11.87
			c7.36,5.57,13.03,12.93,17.03,22.08c3.99,9.15,5.98,20.46,5.98,33.95C176.84,378.73,174.88,389.63,170.96,398.78z M132.37,343.78
			c-3.23-5.78-7.16-10.21-11.76-13.31c-4.61-3.1-9.46-5.09-14.55-5.98c-5.09-0.89-9.49-1.34-13.21-1.34H77.58v87.08h15.48
			c4.67,0,9.63-0.58,14.86-1.75c5.23-1.17,10.01-3.33,14.34-6.5c4.33-3.16,7.91-7.56,10.73-13.21c2.82-5.64,4.23-12.93,4.23-21.87
			C137.22,357.27,135.6,349.56,132.37,343.78z"/>
		<path class="st1" d="M198.71,438.71V294.67h101.53v27.24H237.1v29.72h59.64v27.24H237.1v32.6h65.41v27.24H198.71z"/>
		<path class="st1" d="M410.23,438.71h-47.46l-48.29-144.04h40.86l31.99,113.08h0.41l32.19-113.08h39.42L410.23,438.71z"/>
	</g>
</g>
</svg>
